<svg width="58" height="52" viewBox="0 0 58 52" fill="none" xmlns="http://www.w3.org/2000/svg">
<path d="M47.56 43.0199C46.545 41.8957 45.6841 40.6413 45 39.2899C43.9193 37.1717 42.4255 35.2912 40.6068 33.7593C38.788 32.2274 36.681 31.0749 34.41 30.3699C32.4241 29.7559 30.346 29.4953 28.27 29.5999C29.781 29.5136 31.2688 30.0014 32.4352 30.9658C33.6017 31.9301 34.3607 33.2996 34.56 34.7999C35.1063 38.0416 36.543 41.0676 38.7098 43.5398C40.8765 46.0121 43.688 47.8332 46.83 48.7999C50.4229 49.9041 54.2729 49.8446 57.83 48.6299C53.8678 47.9837 50.2448 46.0047 47.56 43.0199Z" fill="#EDE9E4"/>
<path d="M21.9199 29.7999C22.3816 31.8283 23.1938 33.7606 24.3199 35.5099C23.4976 34.2397 23.1811 32.7075 23.4329 31.2155C23.6846 29.7234 24.4864 28.3799 25.6799 27.4499C28.2148 25.3531 30.1179 22.5938 31.1773 19.4793C32.2366 16.3648 32.4106 13.0174 31.6799 9.80992C30.8458 6.14062 28.8673 2.83142 26.0299 0.359924C27.4425 4.13602 27.5237 8.28133 26.2599 12.1099C25.7761 13.5553 25.1036 14.9305 24.2599 16.1999C22.9645 18.194 22.082 20.4277 21.6646 22.7688C21.2472 25.1099 21.3034 27.5109 21.8299 29.8299L21.9199 29.7999Z" fill="#EDE9E4"/>
<path d="M31.4699 35.9199C30.7896 37.2725 29.6231 38.318 28.2043 38.8465C26.7856 39.3751 25.2194 39.3477 23.8199 38.7699C20.7358 37.6141 17.391 37.3387 14.1594 37.9744C10.9277 38.6101 7.93653 40.132 5.52003 42.3699C2.76473 44.9331 0.894732 48.3052 0.179932 51.9999C2.74383 48.8877 6.29253 46.7429 10.2399 45.9199C11.7229 45.6164 13.2379 45.4988 14.7499 45.5699C17.1216 45.6928 19.4938 45.3393 21.7266 44.5304C23.9593 43.7214 26.0074 42.4734 27.7499 40.8599C29.2749 39.4437 30.5406 37.7719 31.4899 35.9199H31.4699Z" fill="#EDE9E4"/>
</svg>
