<svg width="53" height="59" viewBox="0 0 53 59" fill="none" xmlns="http://www.w3.org/2000/svg">
<path d="M42.8541 48.6746C41.9426 47.3976 41.1695 45.9727 40.5552 44.4376C39.5847 42.0314 38.2432 39.8953 36.61 38.1551C34.9766 36.415 33.0845 35.1058 31.045 34.3049C29.2616 33.6075 27.3954 33.3114 25.5311 33.4303C26.8881 33.3322 28.2241 33.8863 29.2716 34.9818C30.3192 36.0772 31.0008 37.6329 31.1797 39.3372C31.6703 43.0196 32.9605 46.4569 34.9064 49.2652C36.8522 52.0736 39.377 54.1423 42.1986 55.2404C45.4251 56.4947 48.8825 56.4271 52.0769 55.0473C48.5187 54.3132 45.2652 52.0652 42.8541 48.6746Z" fill="#047776"/>
<path d="M19.8285 33.6575C20.2432 35.9616 20.9725 38.1566 21.9838 40.1437C21.2454 38.7008 20.9611 36.9603 21.1873 35.2655C21.4133 33.5706 22.1333 32.0444 23.2051 30.988C25.4816 28.6062 27.1906 25.4717 28.142 21.9338C29.0933 18.3959 29.2495 14.5935 28.5933 10.9499C27.8443 6.78182 26.0675 3.02276 23.5195 0.215271C24.788 4.50471 24.8609 9.21354 23.726 13.5626C23.2915 15.2045 22.6876 16.7667 21.9299 18.2086C20.7666 20.4738 19.9741 23.0112 19.5993 25.6705C19.2244 28.3299 19.2749 31.0573 19.7477 33.6915L19.8285 33.6575Z" fill="#047776"/>
<path d="M28.4048 40.6094C27.7939 42.1459 26.7463 43.3335 25.4722 43.9339C24.1982 44.5343 22.7917 44.5032 21.5349 43.8469C18.7653 42.534 15.7615 42.2211 12.8594 42.9432C9.95728 43.6654 7.27109 45.3942 5.10099 47.9363C2.62665 50.8479 0.947332 54.6784 0.30542 58.8754C2.60788 55.3401 5.79472 52.9038 9.33961 51.9689C10.6714 51.6241 12.0319 51.4905 13.3897 51.5713C15.5196 51.7109 17.6499 51.3094 19.655 50.3905C21.6601 49.4715 23.4993 48.0539 25.0641 46.221C26.4336 44.6123 27.5703 42.7132 28.4228 40.6094H28.4048Z" fill="#047776"/>
</svg>
