<svg width="129" height="129" viewBox="0 0 129 129" fill="none" xmlns="http://www.w3.org/2000/svg">
<g opacity="0.1">
<path opacity="0.1" d="M128.12 125.12V128.12H125.12" stroke="#20263C" stroke-miterlimit="10"/>
<path opacity="0.1" d="M119.36 128.12H6.88" stroke="#20263C" stroke-miterlimit="10" stroke-dasharray="5.77 5.77"/>
<path opacity="0.1" d="M4 128.12H1V125.12" stroke="#20263C" stroke-miterlimit="10"/>
<path opacity="0.1" d="M1 119.35V6.88" stroke="#20263C" stroke-miterlimit="10" stroke-dasharray="5.77 5.77"/>
<path opacity="0.1" d="M1 4V1H4" stroke="#20263C" stroke-miterlimit="10"/>
<path opacity="0.1" d="M9.77002 1H122.24" stroke="#20263C" stroke-miterlimit="10" stroke-dasharray="5.77 5.77"/>
<path opacity="0.1" d="M125.12 1H128.12V4" stroke="#20263C" stroke-miterlimit="10"/>
<path opacity="0.1" d="M128.12 9.76001V122.24" stroke="#20263C" stroke-miterlimit="10" stroke-dasharray="5.77 5.77"/>
</g>
<path d="M85.56 72.0199C84.545 70.8957 83.6841 69.6413 83 68.2899C81.9193 66.1717 80.4255 64.2912 78.6068 62.7593C76.788 61.2274 74.681 60.0749 72.41 59.3699C70.4241 58.7559 68.346 58.4953 66.27 58.5999C67.781 58.5136 69.2688 59.0014 70.4352 59.9658C71.6017 60.9301 72.3607 62.2996 72.56 63.7999C73.1063 67.0416 74.543 70.0676 76.7098 72.5398C78.8765 75.0121 81.688 76.8332 84.83 77.7999C88.4229 78.9041 92.2729 78.8446 95.83 77.6299C91.8678 76.9837 88.2448 75.0047 85.56 72.0199Z" fill="#070606"/>
<path d="M59.9199 58.7999C60.3816 60.8283 61.1938 62.7606 62.3199 64.5099C61.4976 63.2397 61.1811 61.7075 61.4329 60.2155C61.6846 58.7234 62.4864 57.3799 63.6799 56.4499C66.2148 54.3531 68.1179 51.5938 69.1773 48.4793C70.2366 45.3648 70.4106 42.0174 69.6799 38.8099C68.8458 35.1406 66.8673 31.8314 64.0299 29.3599C65.4425 33.136 65.5237 37.2813 64.2599 41.1099C63.7761 42.5553 63.1036 43.9305 62.2599 45.1999C60.9645 47.194 60.082 49.4277 59.6646 51.7688C59.2472 54.1099 59.3034 56.5109 59.8299 58.8299L59.9199 58.7999Z" fill="#070606"/>
<path d="M69.4699 64.9199C68.7896 66.2725 67.6231 67.318 66.2043 67.8465C64.7856 68.3751 63.2194 68.3477 61.8199 67.7699C58.7358 66.6141 55.391 66.3387 52.1594 66.9744C48.9277 67.6101 45.9365 69.132 43.52 71.3699C40.7647 73.9331 38.8947 77.3052 38.1799 80.9999C40.7438 77.8877 44.2925 75.7429 48.2399 74.9199C49.7229 74.6164 51.2379 74.4988 52.7499 74.5699C55.1216 74.6928 57.4938 74.3393 59.7266 73.5304C61.9593 72.7214 64.0074 71.4734 65.7499 69.8599C67.2749 68.4437 68.5406 66.7719 69.4899 64.9199H69.4699Z" fill="#070606"/>
</svg>
